<?xml version="1.0" encoding="UTF-8"?>
<!DOCTYPE svg PUBLIC "-//W3C//DTD SVG 1.1//EN" "http://www.w3.org/Graphics/SVG/1.1/DTD/svg11.dtd">
<svg version="1.2" width="203.2mm" height="203.2mm" viewBox="0 0 20320 20320" preserveAspectRatio="xMidYMid" fill-rule="evenodd" stroke-width="28.222" stroke-linejoin="round" xmlns="http://www.w3.org/2000/svg" xmlns:ooo="http://xml.openoffice.org/svg/export" xmlns:xlink="http://www.w3.org/1999/xlink" xmlns:presentation="http://sun.com/xmlns/staroffice/presentation" xmlns:smil="http://www.w3.org/2001/SMIL20/" xmlns:anim="urn:oasis:names:tc:opendocument:xmlns:animation:1.0" xml:space="preserve">
 <defs class="ClipPathGroup">
  <clipPath id="presentation_clip_path" clipPathUnits="userSpaceOnUse">
   <rect x="0" y="0" width="20320" height="20320"/>
  </clipPath>
  <clipPath id="presentation_clip_path_shrink" clipPathUnits="userSpaceOnUse">
   <rect x="20" y="20" width="20280" height="20280"/>
  </clipPath>
 </defs>
 <defs class="TextShapeIndex">
  <g ooo:slide="id1" ooo:id-list="id3 id4"/>
 </defs>
 <defs class="EmbeddedBulletChars">
  <g id="bullet-char-template-57356" transform="scale(0.00048828125,-0.00048828125)">
   <path d="M 580,1141 L 1163,571 580,0 -4,571 580,1141 Z"/>
  </g>
  <g id="bullet-char-template-57354" transform="scale(0.00048828125,-0.00048828125)">
   <path d="M 8,1128 L 1137,1128 1137,0 8,0 8,1128 Z"/>
  </g>
  <g id="bullet-char-template-10146" transform="scale(0.00048828125,-0.00048828125)">
   <path d="M 174,0 L 602,739 174,1481 1456,739 174,0 Z M 1358,739 L 309,1346 659,739 1358,739 Z"/>
  </g>
  <g id="bullet-char-template-10132" transform="scale(0.00048828125,-0.00048828125)">
   <path d="M 2015,739 L 1276,0 717,0 1260,543 174,543 174,936 1260,936 717,1481 1274,1481 2015,739 Z"/>
  </g>
  <g id="bullet-char-template-10007" transform="scale(0.00048828125,-0.00048828125)">
   <path d="M 0,-2 C -7,14 -16,27 -25,37 L 356,567 C 262,823 215,952 215,954 215,979 228,992 255,992 264,992 276,990 289,987 310,991 331,999 354,1012 L 381,999 492,748 772,1049 836,1024 860,1049 C 881,1039 901,1025 922,1006 886,937 835,863 770,784 769,783 710,716 594,584 L 774,223 C 774,196 753,168 711,139 L 727,119 C 717,90 699,76 672,76 641,76 570,178 457,381 L 164,-76 C 142,-110 111,-127 72,-127 30,-127 9,-110 8,-76 1,-67 -2,-52 -2,-32 -2,-23 -1,-13 0,-2 Z"/>
  </g>
  <g id="bullet-char-template-10004" transform="scale(0.00048828125,-0.00048828125)">
   <path d="M 285,-33 C 182,-33 111,30 74,156 52,228 41,333 41,471 41,549 55,616 82,672 116,743 169,778 240,778 293,778 328,747 346,684 L 369,508 C 377,444 397,411 428,410 L 1163,1116 C 1174,1127 1196,1133 1229,1133 1271,1133 1292,1118 1292,1087 L 1292,965 C 1292,929 1282,901 1262,881 L 442,47 C 390,-6 338,-33 285,-33 Z"/>
  </g>
  <g id="bullet-char-template-9679" transform="scale(0.00048828125,-0.00048828125)">
   <path d="M 813,0 C 632,0 489,54 383,161 276,268 223,411 223,592 223,773 276,916 383,1023 489,1130 632,1184 813,1184 992,1184 1136,1130 1245,1023 1353,916 1407,772 1407,592 1407,412 1353,268 1245,161 1136,54 992,0 813,0 Z"/>
  </g>
  <g id="bullet-char-template-8226" transform="scale(0.00048828125,-0.00048828125)">
   <path d="M 346,457 C 273,457 209,483 155,535 101,586 74,649 74,723 74,796 101,859 155,911 209,963 273,989 346,989 419,989 480,963 531,910 582,859 608,796 608,723 608,648 583,586 532,535 482,483 420,457 346,457 Z"/>
  </g>
  <g id="bullet-char-template-8211" transform="scale(0.00048828125,-0.00048828125)">
   <path d="M -4,459 L 1135,459 1135,606 -4,606 -4,459 Z"/>
  </g>
  <g id="bullet-char-template-61548" transform="scale(0.00048828125,-0.00048828125)">
   <path d="M 173,740 C 173,903 231,1043 346,1159 462,1274 601,1332 765,1332 928,1332 1067,1274 1183,1159 1299,1043 1357,903 1357,740 1357,577 1299,437 1183,322 1067,206 928,148 765,148 601,148 462,206 346,322 231,437 173,577 173,740 Z"/>
  </g>
 </defs>
 <g>
  <g id="id2" class="Master_Slide">
   <g id="bg-id2" class="Background"/>
   <g id="bo-id2" class="BackgroundObjects"/>
  </g>
 </g>
 <g class="SlideGroup">
  <g>
   <g id="container-id1">
    <g id="id1" class="Slide" clip-path="url(#presentation_clip_path)">
     <g class="Page">
      <g class="com.sun.star.drawing.CustomShape">
       <g id="id3">
        <rect class="BoundingBox" stroke="none" fill="none" x="1070" y="1072" width="18259" height="18151"/>
        <path fill="rgb(89,131,176)" stroke="none" d="M 19301,17559 L 18382,17943 17447,18275 16492,18557 15519,18786 14530,18965 13525,19094 12502,19169 11462,19195 10309,19158 9216,19043 8184,18853 7213,18587 6749,18425 6301,18244 5869,18045 5452,17825 5050,17588 4663,17330 4291,17054 3934,16759 3596,16448 3279,16123 2984,15785 2709,15433 2457,15067 2227,14688 2016,14296 1828,13890 1661,13470 1517,13037 1291,12130 1151,11168 1097,10153 1129,9127 1252,8156 1462,7243 1600,6807 1761,6385 1943,5977 2147,5584 2375,5204 2624,4839 2895,4487 3190,4149 3504,3827 3842,3517 4200,3225 4573,2951 4964,2695 5369,2459 5793,2242 6233,2044 7161,1704 8155,1438 9216,1250 10341,1136 11533,1099 12470,1119 13385,1180 14283,1283 15160,1425 16016,1608 16848,1831 17655,2093 18440,2396 18478,6005 17682,5617 16889,5281 16099,4997 15705,4876 15311,4767 14918,4671 14525,4588 14131,4518 13738,4460 13345,4416 12952,4384 12558,4365 12165,4358 11457,4382 10791,4453 10167,4570 9584,4734 9311,4834 9046,4944 8792,5068 8549,5203 8316,5349 8095,5507 7883,5677 7682,5859 7492,6052 7315,6254 7151,6467 6999,6691 6859,6923 6732,7167 6619,7420 6517,7683 6350,8241 6233,8837 6166,9475 6148,10153 6179,10825 6258,11459 6383,12052 6555,12606 6774,13121 6902,13363 7042,13596 7193,13819 7355,14032 7530,14235 7716,14428 7913,14611 8121,14781 8338,14941 8565,15088 8802,15223 9050,15347 9306,15459 9573,15559 9849,15647 10135,15723 10738,15841 11380,15912 12061,15935 12435,15930 12796,15914 13143,15886 13475,15848 13794,15798 14095,15736 14380,15662 14516,15619 14648,15574 14611,12186 11628,12186 11596,9172 19211,9172 19301,17559 Z"/>
        <path fill="none" stroke="rgb(89,131,176)" stroke-width="53" stroke-linejoin="miter" d="M 19301,17559 L 18382,17943 17447,18275 16492,18557 15519,18786 14530,18965 13525,19094 12502,19169 11462,19195 10309,19158 9216,19043 8184,18853 7213,18587 6749,18425 6301,18244 5869,18045 5452,17825 5050,17588 4663,17330 4291,17054 3934,16759 3596,16448 3279,16123 2984,15785 2709,15433 2457,15067 2227,14688 2016,14296 1828,13890 1661,13470 1517,13037 1291,12130 1151,11168 1097,10153 1129,9127 1252,8156 1462,7243 1600,6807 1761,6385 1943,5977 2147,5584 2375,5204 2624,4839 2895,4487 3190,4149 3504,3827 3842,3517 4200,3225 4573,2951 4964,2695 5369,2459 5793,2242 6233,2044 7161,1704 8155,1438 9216,1250 10341,1136 11533,1099 12470,1119 13385,1180 14283,1283 15160,1425 16016,1608 16848,1831 17655,2093 18440,2396 18478,6005 17682,5617 16889,5281 16099,4997 15705,4876 15311,4767 14918,4671 14525,4588 14131,4518 13738,4460 13345,4416 12952,4384 12558,4365 12165,4358 11457,4382 10791,4453 10167,4570 9584,4734 9311,4834 9046,4944 8792,5068 8549,5203 8316,5349 8095,5507 7883,5677 7682,5859 7492,6052 7315,6254 7151,6467 6999,6691 6859,6923 6732,7167 6619,7420 6517,7683 6350,8241 6233,8837 6166,9475 6148,10153 6179,10825 6258,11459 6383,12052 6555,12606 6774,13121 6902,13363 7042,13596 7193,13819 7355,14032 7530,14235 7716,14428 7913,14611 8121,14781 8338,14941 8565,15088 8802,15223 9050,15347 9306,15459 9573,15559 9849,15647 10135,15723 10738,15841 11380,15912 12061,15935 12435,15930 12796,15914 13143,15886 13475,15848 13794,15798 14095,15736 14380,15662 14516,15619 14648,15574 14611,12186 11628,12186 11596,9172 19211,9172 19301,17559 Z"/>
       </g>
      </g>
      <g class="com.sun.star.drawing.CustomShape">
       <g id="id4">
        <rect class="BoundingBox" stroke="none" fill="none" x="7961" y="6010" width="3225" height="3132"/>
        <path fill="rgb(89,131,176)" stroke="none" d="M 7988,6037 L 11158,6037 11158,9114 7988,9114 7988,6037 Z"/>
        <path fill="none" stroke="rgb(89,131,176)" stroke-width="53" stroke-linejoin="miter" d="M 7988,6037 L 11158,6037 11158,9114 7988,9114 7988,6037 Z"/>
       </g>
      </g>
     </g>
    </g>
   </g>
  </g>
 </g>
</svg>