<?xml version="1.0" encoding="UTF-8"?>
<svg version="1.1" xmlns="http://www.w3.org/2000/svg" width="256" height="256">
<path d="M0 0 C8.53875 -0.0825 17.0775 -0.165 25.875 -0.25 C28.55093262 -0.28641602 31.22686523 -0.32283203 33.98388672 -0.36035156 C36.13247885 -0.37204673 38.28107992 -0.38223659 40.4296875 -0.390625 C42.06949585 -0.4213208 42.06949585 -0.4213208 43.74243164 -0.45263672 C52.17603375 -0.45642966 58.78343419 1.25006577 65.875 5.875 C72.80976464 12.80976464 75.07195723 21.31994359 75.4375 30.9375 C75.14352747 40.3813676 72.41949045 48.58161467 65.81640625 55.44140625 C63.41514254 57.50184543 60.94008279 58.85265062 58 60 C59.54737663 64.05601685 61.39125599 67.92822101 63.3359375 71.8046875 C63.81687363 72.76799484 63.81687363 72.76799484 64.30752563 73.75076294 C64.98398186 75.10435326 65.66144022 76.45744319 66.33984375 77.81005859 C67.36756878 79.86017612 68.39103108 81.9123808 69.4140625 83.96484375 C70.07526454 85.28658657 70.73671493 86.6082052 71.3984375 87.9296875 C71.69962494 88.53408661 72.00081238 89.13848572 72.31112671 89.76119995 C73.85869131 92.83971151 75.48014603 95.84761053 77.22509766 98.81689453 C79 102 79 102 79 104 C71.74 104 64.48 104 57 104 C54.29040399 98.62664701 51.58325814 93.25220365 48.88232422 87.87451172 C47.96221146 86.04436161 47.0406659 84.21493114 46.11767578 82.38623047 C44.79344965 79.76195849 43.4743492 77.13516608 42.15625 74.5078125 C41.74064819 73.68693146 41.32504639 72.86605042 40.89685059 72.02029419 C40.5164563 71.25965668 40.13606201 70.49901917 39.74414062 69.71533203 C39.40660767 69.04470734 39.06907471 68.37408264 38.72131348 67.68313599 C38 66 38 66 38 64 C32.06 64 26.12 64 20 64 C20 77.2 20 90.4 20 104 C13.4 104 6.8 104 0 104 C0 69.68 0 35.36 0 0 Z M20 17 C20 26.9 20 36.8 20 47 C23.63 47.061875 27.26 47.12375 31 47.1875 C32.69189453 47.22846802 32.69189453 47.22846802 34.41796875 47.27026367 C40.67326164 47.3215456 45.35919354 46.78159034 51 44 C54.86312487 39.26767204 55.59647885 35.42443619 55.3203125 29.3671875 C54.86790314 26.023772 53.94719362 23.75292891 52 21 C47.34017022 17.53499837 43.27759216 16.87068004 37.578125 16.90234375 C36.65418945 16.90484131 35.73025391 16.90733887 34.77832031 16.90991211 C33.61397461 16.91901611 32.44962891 16.92812012 31.25 16.9375 C27.5375 16.958125 23.825 16.97875 20 17 Z " fill="#204080" transform="translate(10,77)"/>
<path d="M0 0 C0.9180542 -0.01482422 1.8361084 -0.02964844 2.78198242 -0.04492188 C12.72388917 0.10467421 21.6772585 3.61242272 28.875 10.5625 C33.73130689 16.29976959 36.14739984 22.30354843 37.875 29.5625 C35.98167466 30.38082722 34.08522267 31.19192268 32.1875 32 C30.60388672 32.67869141 30.60388672 32.67869141 28.98828125 33.37109375 C26.25527471 34.41697455 23.75457663 35.09770748 20.875 35.5625 C20.51148438 34.81484375 20.14796875 34.0671875 19.7734375 33.296875 C16.11206033 26.12433101 13.6750912 22.1625304 5.875 19.5625 C-0.71185683 18.87941855 -6.84385139 18.65625842 -12.37109375 22.671875 C-22.66178509 33.76473605 -21.7405051 48.65697854 -21.29980469 62.70703125 C-20.76137464 71.50239134 -18.01622512 78.55971083 -12.00390625 85.07421875 C-6.43708928 89.48369331 0.09256704 89.29972097 6.875 88.5625 C14.69608151 84.86526147 18.37574592 78.07941618 21.875 70.5625 C26.47308129 71.10144425 29.74284369 72.32821528 33.75 74.625 C34.71679688 75.17285156 35.68359375 75.72070312 36.6796875 76.28515625 C37.76636719 76.91744141 37.76636719 76.91744141 38.875 77.5625 C37.06508635 83.9192699 34.64818313 89.14153436 30.875 94.5625 C30.318125 95.42875 29.76125 96.295 29.1875 97.1875 C22.15556722 104.40948502 13.30615799 107.77850442 3.38696289 107.94238281 C2.47551514 107.94077148 1.56406738 107.93916016 0.625 107.9375 C-0.31287354 107.93588867 -1.25074707 107.93427734 -2.21704102 107.93261719 C-8.88868078 107.81405159 -14.3253108 107.06673326 -20.125 103.5625 C-21.15625 103.005625 -22.1875 102.44875 -23.25 101.875 C-34.18558649 93.07898478 -39.97605455 81.70126473 -41.89794922 67.83447266 C-43.80585325 48.74312328 -42.66986427 30.06839866 -32.125 13.5625 C-23.63072177 3.20958891 -12.93280909 0.14702516 0 0 Z " fill="#204080" transform="translate(211.125,73.4375)"/>
<path d="M0 0 C24.42 0 48.84 0 74 0 C74 5.61 74 11.22 74 17 C65.09 17 56.18 17 47 17 C47 45.71 47 74.42 47 104 C40.4 104 33.8 104 27 104 C27 75.29 27 46.58 27 17 C18.09 17 9.18 17 0 17 C0 11.39 0 5.78 0 0 Z " fill="#204080" transform="translate(91,76)"/>
</svg>
